<?xml version="1.0" encoding="UTF-8" standalone="no"?>
<svg
   xmlns:osb="http://www.openswatchbook.org/uri/2009/osb"
   xmlns:dc="http://purl.org/dc/elements/1.1/"
   xmlns:cc="http://creativecommons.org/ns#"
   xmlns:rdf="http://www.w3.org/1999/02/22-rdf-syntax-ns#"
   xmlns:svg="http://www.w3.org/2000/svg"
   xmlns="http://www.w3.org/2000/svg"
   xmlns:xlink="http://www.w3.org/1999/xlink"
   xmlns:sodipodi="http://sodipodi.sourceforge.net/DTD/sodipodi-0.dtd"
   xmlns:inkscape="http://www.inkscape.org/namespaces/inkscape"
   width="4.16667in"
   height="4.16667in"
   viewBox="0 0 300 300"
   id="svg2994"
   version="1.1"
   inkscape:version="0.48.4 r9939"
   sodipodi:docname="redLogoPathNew.svg">
  <metadata
     id="metadata3001">
    <rdf:RDF>
      <cc:Work
         rdf:about="">
        <dc:format>image/svg+xml</dc:format>
        <dc:type
           rdf:resource="http://purl.org/dc/dcmitype/StillImage" />
        <dc:title></dc:title>
      </cc:Work>
    </rdf:RDF>
  </metadata>
  <defs
     id="defs2999">
    <linearGradient
       inkscape:collect="always"
       id="linearGradient5506">
      <stop
         style="stop-color:#000000;stop-opacity:1;"
         offset="0"
         id="stop5508" />
      <stop
         style="stop-color:#000000;stop-opacity:0;"
         offset="1"
         id="stop5510" />
    </linearGradient>
    <linearGradient
       inkscape:collect="always"
       id="linearGradient5490">
      <stop
         style="stop-color:#315790;stop-opacity:1"
         offset="0"
         id="stop5492" />
      <stop
         style="stop-color:#000000;stop-opacity:1"
         offset="1"
         id="stop5494" />
    </linearGradient>
    <linearGradient
       id="linearGradient5418">
      <stop
         style="stop-color:#1b1c2d;stop-opacity:1;"
         offset="0"
         id="stop5420" />
      <stop
         id="stop5430"
         offset="0.5"
         style="stop-color:#09092d;stop-opacity:0.49803922;" />
      <stop
         style="stop-color:#000000;stop-opacity:0;"
         offset="1"
         id="stop5422" />
    </linearGradient>
    <linearGradient
       id="linearGradient5398"
       osb:paint="solid">
      <stop
         style="stop-color:#000000;stop-opacity:1;"
         offset="0"
         id="stop5400" />
    </linearGradient>
    <linearGradient
       id="linearGradient3928">
      <stop
         id="stop5404"
         offset="0"
         style="stop-color:#000000;stop-opacity:0.49803922;" />
      <stop
         style="stop-color:#000000;stop-opacity:0;"
         offset="1"
         id="stop3932" />
    </linearGradient>
    <radialGradient
       inkscape:collect="always"
       xlink:href="#linearGradient5490"
       id="radialGradient5496"
       cx="149.6842"
       cy="150.94679"
       fx="149.6842"
       fy="150.94679"
       r="109.5183"
       gradientTransform="matrix(-0.01679201,-2.3759233,2.580474,-0.01820679,-237.31657,509.33381)"
       gradientUnits="userSpaceOnUse" />
    <radialGradient
       inkscape:collect="always"
       xlink:href="#linearGradient5506"
       id="radialGradient5514"
       cx="146.84418"
       cy="149.34775"
       fx="146.84418"
       fy="149.34775"
       r="109.5183"
       gradientTransform="matrix(0.99993354,-0.01152884,0.01153376,1.0003606,-1.712782,1.6390832)"
       gradientUnits="userSpaceOnUse" />
  </defs>
  <sodipodi:namedview
     pagecolor="#ffffff"
     bordercolor="#666666"
     borderopacity="1"
     objecttolerance="10"
     gridtolerance="10"
     guidetolerance="10"
     inkscape:pageopacity="0"
     inkscape:pageshadow="2"
     inkscape:window-width="1920"
     inkscape:window-height="1018"
     id="namedview2997"
     showgrid="false"
     inkscape:snap-page="false"
     inkscape:snap-grids="true"
     inkscape:snap-to-guides="true"
     inkscape:zoom="2.5333315"
     inkscape:cx="52.931949"
     inkscape:cy="279.34951"
     inkscape:window-x="-8"
     inkscape:window-y="219"
     inkscape:window-maximized="1"
     inkscape:current-layer="svg2994" />
  <path
     id="Auswahl"
     d="m 68,40.526316 c 25.44,0 45.38,-3.32 64.96,17 3.31,3.44 5.82,6.85 8.17,11 14.17,25.13 6.14,57.740004 -18.13,73.450004 -9.82,6.36 -20.46,8.68 -32,8.55 -23.54,-0.28 -44.9,-17.42 -51.08,-40 C 36.97,99.746316 38,84.946316 38,73.526316 l 0,-24 c 0.01,-3.5 -0.04435,-8.769474 -0.04435,-8.769474 0,0 23.91435,-0.230526 30.04435,-0.230526 z m 149,21.89 c 14.05,10.52 25.92,24.19 33.52,40.110004 2.28,4.78 5.95,11.67 5.25,17 -1.42,10.84 -18.24,23.1 -27.77,26.99 -8.2,3.34 -14.25,4.11 -23,4.01 -46.54,-0.55 -70.1,-58.240004 -38.91,-92.000004 4.38,-4.74 8.98,-8.68 14.91,-11.3 10.41,-2.25 27.81,9.06 36,15.19 z M 148,211.52632 c -0.17,14.57 -6.61,27.92 -17,37.96 -3.59,3.47 -8.9,8.15 -14,8.81 -4.36,0.58 -8.12,-1.26 -12,-2.92 -8.59,-3.69 -16.62,-8.54 -24,-14.27 -13.16,-10.22 -24.33,-23.47 -31.52,-38.58 -1.89,-3.99 -5.55,-11.71 -5.33,-16 0.25,-4.94 4.7,-10.49 7.94,-14 9.52,-10.3 19.31,-15.05 32.91,-17.56 35.13,-4.5 63.41,21.33 63,56.56 z m 97.99,-40.99 c 4.17,4.18 10.01,10.73 9.87,16.99 -0.11,5.49 -6.29,17.04 -9.14,22 -9.71,16.86 -23.86,30.64 -40.72,40.28 -4.68,2.67 -13.82,7.55 -19,8.39 -7.06,1.14 -13.24,-4.12 -18,-8.71 -12.12,-11.68 -17.19,-25.35 -17,-41.96 0.32,-27.41 20.86,-47.73 47,-52.56 17.59,-2.26 34.35,2.94 46.99,15.57 z"
     inkscape:connector-curvature="0"
     style="fill:url(#radialGradient5496);fill-opacity:1;fill-rule:nonzero;stroke:url(#radialGradient5514);stroke-width:0.99999928;stroke-linecap:square;stroke-linejoin:miter;stroke-miterlimit:4;stroke-opacity:1;stroke-dasharray:none"
     sodipodi:nodetypes="scccccsccsccccccccccccccccccccccccccc" />
</svg>
